<mxfile host="app.diagrams.net" modified="2022-11-23T20:04:33.962Z" agent="5.0 (Windows NT 10.0; Win64; x64) AppleWebKit/537.36 (KHTML, like Gecko) Chrome/107.0.0.0 Safari/537.36" etag="QHcYI2h04vhmOfxQZNly" version="20.6.0" type="github">
  <diagram id="3228e29e-7158-1315-38df-8450db1d8a1d" name="Page-1">
    <mxGraphModel dx="1011" dy="770" grid="0" gridSize="10" guides="1" tooltips="1" connect="1" arrows="1" fold="1" page="1" pageScale="1" pageWidth="700" pageHeight="600" background="none" math="0" shadow="0">
      <root>
        <mxCell id="0" />
        <mxCell id="1" parent="0" />
        <mxCell id="21533" value="" style="ellipse;opacity=60;html=1;fillStyle=hatch;fillColor=#f8cecc;strokeColor=#b85450;" parent="1" vertex="1">
          <mxGeometry x="160" y="160" width="160" height="160" as="geometry" />
        </mxCell>
        <mxCell id="21531" value="" style="ellipse;opacity=60;html=1;fillStyle=solid;fillColor=#f8cecc;strokeColor=#b85450;" parent="1" vertex="1">
          <mxGeometry x="360" y="160" width="160" height="160" as="geometry" />
        </mxCell>
        <mxCell id="21532" value="" style="ellipse;opacity=60;html=1;fillColor=#f8cecc;strokeColor=#b85450;fillStyle=hatch;" parent="1" vertex="1">
          <mxGeometry x="80" y="160" width="160" height="160" as="geometry" />
        </mxCell>
        <mxCell id="Q6rfKG8NyJllv94CzPF--21541" value="" style="ellipse;opacity=60;html=1;fillStyle=solid;fillColor=#f8cecc;strokeColor=#b85450;" vertex="1" parent="1">
          <mxGeometry x="440" y="160" width="160" height="160" as="geometry" />
        </mxCell>
        <mxCell id="Q6rfKG8NyJllv94CzPF--21542" value="&lt;font style=&quot;font-size: 14px;&quot;&gt;INNER JOIN&lt;/font&gt;" style="rounded=0;whiteSpace=wrap;html=1;fillColor=none;verticalAlign=top;" vertex="1" parent="1">
          <mxGeometry x="70" y="130" width="260" height="200" as="geometry" />
        </mxCell>
        <mxCell id="Q6rfKG8NyJllv94CzPF--21543" value="&lt;font style=&quot;font-size: 14px;&quot;&gt;CROSS JOIN&lt;/font&gt;" style="rounded=0;whiteSpace=wrap;html=1;fillColor=none;verticalAlign=top;" vertex="1" parent="1">
          <mxGeometry x="350" y="130" width="260" height="200" as="geometry" />
        </mxCell>
        <mxCell id="Q6rfKG8NyJllv94CzPF--21544" value="&lt;font style=&quot;font-size: 14px;&quot;&gt;LEFT OUTER JOIN&lt;/font&gt;" style="rounded=0;whiteSpace=wrap;html=1;fillColor=none;verticalAlign=top;" vertex="1" parent="1">
          <mxGeometry x="70" y="345" width="260" height="205" as="geometry" />
        </mxCell>
        <mxCell id="Q6rfKG8NyJllv94CzPF--21545" value="&lt;font style=&quot;font-size: 14px;&quot;&gt;RIGHT OUTER JOIN&lt;/font&gt;" style="rounded=0;whiteSpace=wrap;html=1;fillColor=none;verticalAlign=top;" vertex="1" parent="1">
          <mxGeometry x="350" y="345" width="260" height="205" as="geometry" />
        </mxCell>
        <mxCell id="Q6rfKG8NyJllv94CzPF--21548" value="" style="ellipse;opacity=60;html=1;fillColor=#f8cecc;strokeColor=#b85450;fillStyle=hatch;" vertex="1" parent="1">
          <mxGeometry x="160" y="380" width="160" height="160" as="geometry" />
        </mxCell>
        <mxCell id="Q6rfKG8NyJllv94CzPF--21550" value="" style="ellipse;opacity=60;html=1;fillColor=#f8cecc;strokeColor=#b85450;fillStyle=hatch;" vertex="1" parent="1">
          <mxGeometry x="360" y="380" width="160" height="160" as="geometry" />
        </mxCell>
        <mxCell id="Q6rfKG8NyJllv94CzPF--21549" value="" style="ellipse;opacity=60;html=1;fillColor=#f8cecc;strokeColor=#b85450;" vertex="1" parent="1">
          <mxGeometry x="440" y="380" width="160" height="160" as="geometry" />
        </mxCell>
        <mxCell id="Q6rfKG8NyJllv94CzPF--21547" value="" style="ellipse;opacity=60;html=1;fillColor=#f8cecc;strokeColor=#b85450;" vertex="1" parent="1">
          <mxGeometry x="80" y="380" width="160" height="160" as="geometry" />
        </mxCell>
        <mxCell id="Q6rfKG8NyJllv94CzPF--21552" value="" style="ellipse;whiteSpace=wrap;html=1;shadow=1;fillStyle=solid;fillColor=#f8cecc;strokeColor=#b85450;" vertex="1" parent="1">
          <mxGeometry x="160" y="175" width="80" height="130" as="geometry" />
        </mxCell>
        <mxCell id="Q6rfKG8NyJllv94CzPF--21553" value="" style="ellipse;whiteSpace=wrap;html=1;shadow=1;fillStyle=solid;fillColor=#f8cecc;strokeColor=#b85450;" vertex="1" parent="1">
          <mxGeometry x="440" y="175" width="80" height="130" as="geometry" />
        </mxCell>
        <mxCell id="Q6rfKG8NyJllv94CzPF--21554" value="" style="ellipse;whiteSpace=wrap;html=1;shadow=1;fillStyle=solid;fillColor=#f8cecc;strokeColor=#b85450;" vertex="1" parent="1">
          <mxGeometry x="160" y="395" width="80" height="130" as="geometry" />
        </mxCell>
        <mxCell id="Q6rfKG8NyJllv94CzPF--21555" value="" style="ellipse;whiteSpace=wrap;html=1;shadow=1;fillStyle=solid;fillColor=#f8cecc;strokeColor=#b85450;" vertex="1" parent="1">
          <mxGeometry x="440" y="395" width="80" height="130" as="geometry" />
        </mxCell>
        <mxCell id="Q6rfKG8NyJllv94CzPF--21557" value="&lt;font style=&quot;font-size: 22px;&quot;&gt;&lt;b&gt;SQL JOINS&lt;/b&gt;&lt;/font&gt;" style="rounded=0;whiteSpace=wrap;html=1;fillColor=none;verticalAlign=middle;" vertex="1" parent="1">
          <mxGeometry x="70" y="60" width="540" height="50" as="geometry" />
        </mxCell>
      </root>
    </mxGraphModel>
  </diagram>
</mxfile>
